PathFileType	4	(x/y/z)	S10_SL_Cal_T01
DataRate	CameraRate	NumFrames	NumMarkers	Units	OrigDataRate	OrigDataStartFrame	OrigNumFrames
240	240	8	51	mm	240	1801	2400
Frame#	Time	Sternum			R.Acromium			L.Acromium			Top.Head			R.ASIS			L.ASIS			R.PSIS			L.PSIS			R.Great.Tro			L.Great.Tro			R.Iliac.Crest			L.Iliac.Crest			V.Sacral			R.Thigh.Upper.Post			R.Thigh.Lower.Ant			R.Thigh.Lower.Post			R.Thigh.Upper.Ant			R.Knee.Lat			R.Knee.Med			R.Shank.Upper.Post			R.Shank.Lower.Ant			R.Shank.Lower.Post			R.Shank.Upper.Ant			R.Ankle.Lat			R.Ankle.Med			R.Heel.Upper			R.Heel.Med			R.Heel.Lat			R.Toe.Lat			R.Toe.Med			R.Toe.Tip			L.Thigh.Upper.Post			L.Thigh.Lower.Ant			L.Thigh.Lower.Post			L.Thigh.Upper.Ant			L.Knee.Lat			L.Knee.Med			L.Shank.Upper.Post			L.Shank.Lower.Ant			L.Shank.Lower.Post			L.Shank.Upper.Ant			L.Ankle.Lat			L.Ankle.Med			L.Heel.Upper			L.Heel.Med			L.Heel.Lat			L.Toe.Lat			L.Toe.Med			L.Toe.Tip			Cervical.Spine			Back			
		X1	Y1	Z1	X2	Y2	Z2	X3	Y3	Z3	X4	Y4	Z4	X5	Y5	Z5	X6	Y6	Z6	X7	Y7	Z7	X8	Y8	Z8	X9	Y9	Z9	X10	Y10	Z10	X11	Y11	Z11	X12	Y12	Z12	X13	Y13	Z13	X14	Y14	Z14	X15	Y15	Z15	X16	Y16	Z16	X17	Y17	Z17	X18	Y18	Z18	X19	Y19	Z19	X20	Y20	Z20	X21	Y21	Z21	X22	Y22	Z22	X23	Y23	Z23	X24	Y24	Z24	X25	Y25	Z25	X26	Y26	Z26	X27	Y27	Z27	X28	Y28	Z28	X29	Y29	Z29	X30	Y30	Z30	X31	Y31	Z31	X32	Y32	Z32	X33	Y33	Z33	X34	Y34	Z34	X35	Y35	Z35	X36	Y36	Z36	X37	Y37	Z37	X38	Y38	Z38	X39	Y39	Z39	X40	Y40	Z40	X41	Y41	Z41	X42	Y42	Z42	X43	Y43	Z43	X44	Y44	Z44	X45	Y45	Z45	X46	Y46	Z46	X47	Y47	Z47	X48	Y48	Z48	X49	Y49	Z49	X50	Y50	Z50	X51	Y51	Z51	

1801	7.5	767.57	1306	329.39	617.9	1447.5	479.4	625.64	1481.8	174.42	653.7	1774	350.81	722.43	1006.9	435.41	727.06	1027	200.05	527.58	1056.7	346.59	535.78	1062.6	265.45	641.01	937.32	504.12	658.06	963.23	139.13	632.23	1098.1	482.12	663.62	1110.2	171.41	504.19	1030.3	308.57	623.46	727.62	508.28	663.95	640.3	470.58	601.1	640.88	500.85	688.34	728.49	473.26	578.82	517.08	463.95	568.86	515.21	336.61	510.77	295.72	475.47	581.95	237.31	466.16	514.22	221.93	472.62	581.34	313.94	468.82	542.94	108.25	456	566.52	113.39	380.79	494	64.013	406.17	507.76	37.081	380.43	494.52	39.916	440.71	659.65	39.298	508.64	702.03	44.652	404.39	754.75	61.002	454.3	571.95	709.65	118.17	627.86	613.87	132.95	551.7	616.3	128.55	649.64	700.17	125.29	573.66	523.04	130.73	564.35	505.52	257.97	514.75	308.47	116.01	587.55	225.79	130.32	523.49	231.42	123.04	579.08	302.22	123	564.47	103.72	135.41	579.19	111.17	220.26	500.27	76.695	176.12	511.75	45.776	209.74	508.19	46.366	145.33	684.57	41.418	109.08	711.38	47.458	215.59	766.92	60.422	169.64	552.47	1506.3	335.79	492.86	1290.3	315.64
1802	7.5042	767.57	1306	329.39	617.9	1447.5	479.4	625.65	1481.8	174.42	653.69	1774.1	350.78	722.43	1006.9	435.42	727.06	1027	200.06	527.59	1056.7	346.59	535.79	1062.6	265.46	641.02	937.32	504.13	658.07	963.22	139.14	632.23	1098.1	482.13	663.62	1110.2	171.42	504.19	1030.3	308.58	623.47	727.62	508.29	663.96	640.3	470.58	601.1	640.88	500.86	688.35	728.49	473.27	578.83	517.08	463.96	568.87	515.21	336.61	510.77	295.72	475.47	581.95	237.31	466.16	514.22	221.93	472.62	581.34	313.94	468.82	542.94	108.25	456	566.52	113.39	380.79	494	64.014	406.17	507.76	37.081	380.43	494.52	39.915	440.71	659.65	39.298	508.64	702.03	44.652	404.39	754.75	61.002	454.3	571.95	709.65	118.17	627.86	613.87	132.96	551.7	616.3	128.56	649.64	700.17	125.3	573.66	523.04	130.73	564.36	505.52	257.98	514.75	308.47	116.01	587.55	225.79	130.32	523.49	231.42	123.04	579.08	302.22	123	564.47	103.72	135.41	579.19	111.18	220.26	500.27	76.695	176.12	511.75	45.776	209.74	508.19	46.366	145.33	684.57	41.418	109.08	711.38	47.456	215.59	766.92	60.421	169.64	552.47	1506.3	335.78	492.87	1290.3	315.65
1803	7.5083	767.57	1306	329.4	617.9	1447.5	479.39	625.66	1481.8	174.41	653.68	1774.1	350.75	722.44	1006.9	435.43	727.07	1027	200.07	527.59	1056.7	346.6	535.8	1062.6	265.46	641.02	937.32	504.14	658.08	963.22	139.15	632.24	1098.1	482.14	663.63	1110.2	171.43	504.2	1030.3	308.59	623.47	727.62	508.29	663.96	640.3	470.59	601.11	640.88	500.86	688.35	728.49	473.28	578.83	517.08	463.96	568.88	515.21	336.62	510.77	295.72	475.47	581.95	237.31	466.16	514.23	221.93	472.62	581.34	313.94	468.82	542.94	108.25	456	566.52	113.39	380.79	494	64.015	406.17	507.77	37.081	380.42	494.52	39.915	440.71	659.65	39.297	508.64	702.03	44.653	404.39	754.75	61.001	454.3	571.96	709.66	118.18	627.86	613.87	132.97	551.7	616.3	128.56	649.64	700.17	125.3	573.67	523.04	130.74	564.36	505.52	257.98	514.75	308.48	116.01	587.55	225.79	130.33	523.49	231.42	123.04	579.08	302.22	123.01	564.47	103.72	135.41	579.19	111.18	220.26	500.27	76.695	176.12	511.75	45.776	209.74	508.19	46.366	145.33	684.57	41.418	109.08	711.38	47.455	215.59	766.92	60.42	169.64	552.48	1506.3	335.77	492.87	1290.3	315.65
1804	7.5125	767.57	1306	329.4	617.9	1447.5	479.39	625.67	1481.8	174.41	653.67	1774.1	350.72	722.44	1006.9	435.43	727.08	1027	200.08	527.6	1056.7	346.61	535.8	1062.6	265.47	641.03	937.32	504.15	658.09	963.22	139.16	632.24	1098.1	482.15	663.63	1110.2	171.43	504.21	1030.3	308.6	623.48	727.62	508.3	663.97	640.29	470.59	601.12	640.88	500.87	688.36	728.49	473.29	578.84	517.08	463.97	568.88	515.22	336.62	510.77	295.71	475.48	581.95	237.31	466.16	514.23	221.93	472.62	581.34	313.94	468.83	542.94	108.25	456	566.52	113.39	380.79	494	64.015	406.17	507.77	37.081	380.42	494.52	39.915	440.71	659.65	39.298	508.64	702.03	44.653	404.39	754.75	61.001	454.3	571.96	709.66	118.19	627.87	613.87	132.97	551.71	616.3	128.57	649.65	700.17	125.31	573.67	523.04	130.74	564.37	505.52	257.99	514.75	308.48	116.02	587.55	225.79	130.33	523.49	231.43	123.05	579.08	302.22	123.01	564.47	103.72	135.42	579.19	111.18	220.27	500.27	76.695	176.12	511.75	45.776	209.74	508.19	46.366	145.33	684.57	41.418	109.08	711.38	47.453	215.59	766.92	60.42	169.64	552.49	1506.3	335.76	492.88	1290.3	315.65
1805	7.5167	767.57	1306	329.4	617.9	1447.5	479.38	625.68	1481.8	174.4	653.66	1774.1	350.69	722.45	1006.9	435.45	727.08	1027	200.09	527.61	1056.7	346.62	535.81	1062.6	265.48	641.03	937.32	504.16	658.09	963.21	139.17	632.24	1098.1	482.16	663.64	1110.2	171.44	504.22	1030.3	308.61	623.48	727.62	508.31	663.98	640.29	470.6	601.12	640.88	500.87	688.36	728.49	473.29	578.84	517.08	463.97	568.89	515.22	336.63	510.78	295.71	475.48	581.95	237.31	466.16	514.23	221.93	472.62	581.35	313.94	468.83	542.94	108.25	456	566.52	113.39	380.79	494	64.016	406.17	507.77	37.08	380.42	494.52	39.915	440.71	659.65	39.298	508.64	702.03	44.652	404.39	754.75	61.002	454.3	571.96	709.66	118.2	627.87	613.87	132.98	551.71	616.3	128.58	649.65	700.17	125.32	573.67	523.04	130.75	564.38	505.52	258	514.76	308.48	116.02	587.55	225.79	130.33	523.49	231.43	123.05	579.09	302.22	123.01	564.47	103.72	135.42	579.19	111.19	220.27	500.27	76.695	176.12	511.75	45.776	209.74	508.19	46.366	145.33	684.58	41.418	109.08	711.38	47.452	215.6	766.92	60.419	169.64	552.5	1506.3	335.75	492.88	1290.3	315.65
1806	7.5208	767.57	1306	329.41	617.9	1447.5	479.37	625.69	1481.8	174.39	653.65	1774.1	350.66	722.46	1006.9	435.46	727.09	1027	200.09	527.61	1056.7	346.63	535.82	1062.6	265.49	641.03	937.32	504.16	658.1	963.21	139.18	632.25	1098.1	482.17	663.65	1110.2	171.45	504.22	1030.3	308.62	623.49	727.62	508.31	663.98	640.29	470.61	601.13	640.88	500.88	688.37	728.49	473.3	578.84	517.08	463.97	568.89	515.22	336.63	510.78	295.71	475.48	581.95	237.31	466.16	514.23	221.92	472.62	581.35	313.93	468.83	542.94	108.25	456	566.52	113.39	380.79	494	64.017	406.17	507.77	37.08	380.42	494.52	39.916	440.71	659.65	39.298	508.64	702.03	44.652	404.39	754.75	61.002	454.3	571.96	709.66	118.2	627.87	613.87	132.98	551.71	616.31	128.59	649.65	700.17	125.32	573.67	523.04	130.75	564.38	505.52	258	514.76	308.48	116.02	587.55	225.79	130.33	523.49	231.43	123.05	579.09	302.22	123.01	564.47	103.72	135.42	579.19	111.19	220.27	500.27	76.695	176.12	511.75	45.777	209.74	508.19	46.366	145.33	684.58	41.418	109.08	711.38	47.451	215.6	766.92	60.418	169.64	552.51	1506.3	335.74	492.89	1290.3	315.65
1807	7.525	767.57	1306	329.41	617.91	1447.5	479.37	625.7	1481.7	174.39	653.64	1774.1	350.62	722.46	1006.9	435.47	727.1	1027	200.1	527.62	1056.7	346.63	535.83	1062.6	265.5	641.04	937.32	504.17	658.11	963.2	139.2	632.25	1098.1	482.18	663.65	1110.2	171.45	504.23	1030.3	308.62	623.49	727.62	508.32	663.99	640.29	470.61	601.14	640.88	500.88	688.37	728.49	473.31	578.85	517.08	463.98	568.9	515.22	336.64	510.78	295.71	475.48	581.95	237.31	466.17	514.23	221.92	472.62	581.35	313.93	468.83	542.94	108.25	456	566.52	113.39	380.79	494	64.017	406.17	507.77	37.08	380.42	494.52	39.916	440.71	659.65	39.298	508.64	702.03	44.652	404.39	754.75	61.002	454.3	571.97	709.66	118.21	627.87	613.87	132.99	551.71	616.31	128.59	649.66	700.17	125.33	573.67	523.04	130.76	564.38	505.52	258.01	514.76	308.48	116.03	587.55	225.79	130.33	523.49	231.43	123.05	579.09	302.22	123.02	564.47	103.72	135.42	579.2	111.19	220.28	500.27	76.695	176.12	511.75	45.777	209.74	508.19	46.366	145.33	684.58	41.418	109.08	711.38	47.45	215.6	766.92	60.418	169.64	552.52	1506.3	335.73	492.9	1290.3	315.65
1808	7.5292	767.57	1306	329.42	617.91	1447.6	479.36	625.72	1481.7	174.38	653.63	1774.1	350.59	722.47	1006.9	435.48	727.1	1027	200.11	527.62	1056.7	346.64	535.83	1062.6	265.51	641.04	937.32	504.18	658.11	963.19	139.21	632.25	1098.1	482.19	663.66	1110.2	171.46	504.24	1030.3	308.63	623.5	727.62	508.33	663.99	640.28	470.62	601.14	640.88	500.89	688.38	728.49	473.32	578.85	517.08	463.98	568.9	515.22	336.64	510.78	295.71	475.48	581.95	237.31	466.17	514.23	221.92	472.63	581.35	313.93	468.84	542.94	108.25	456	566.52	113.39	380.79	494	64.017	406.17	507.77	37.08	380.42	494.52	39.917	440.71	659.65	39.298	508.64	702.03	44.651	404.39	754.75	61.002	454.3	571.97	709.66	118.22	627.87	613.87	132.99	551.71	616.31	128.6	649.66	700.17	125.34	573.67	523.04	130.76	564.38	505.52	258.01	514.76	308.49	116.03	587.55	225.79	130.33	523.49	231.43	123.05	579.09	302.22	123.02	564.47	103.72	135.42	579.2	111.2	220.28	500.27	76.695	176.12	511.75	45.777	209.74	508.19	46.366	145.33	684.57	41.418	109.08	711.38	47.449	215.6	766.92	60.417	169.64	552.53	1506.3	335.72	492.91	1290.3	315.65
